The exciting, metaphorical world of bull-fighting provides the setting for this dramatic tale of an aging toreador faced with a difficult decision after his illustrious reputation is nearly destroyed when he introduces his young rival and protege and suddenly runs from the ring. The distraught old matador finds comfort in the tender arms of an American fan. Unfortunately, her old boyfriend gets jealous and proclaims the fighter a coward. In time, the matador and his student enter the ring together for a final battle. It is here in the unforgiving arena that the true nature of their relationship is revealed. The film's director Budd Boetticher, gives the film added realism as he, a former matador, also worked as the technical advisor. Originally, the bull-fighting scenes were more graphic, but squeamish censors intervened and the scenes were heavily edited.


 
http://www.imdb.com/title/tt0048331/



Director:
Budd Boetticher



        Maureen O'Hara	 ... 	Karen Harrison

	Anthony Quinn	... 	Luís Santos
	Manuel Rojas	... 	Rafael Reyes
	Richard Denning	... 	Mark Russell
	Thomas Gomez	... 	Don David


 Video #2
      ID : 2
      Format : VC-1
      Format profile : MP@ML
      Codec ID : WMV3
      Codec ID/Info : Windows Media Video 9
      Codec ID/Hint : WMV3
      Duration : 1h 30mn
      Bit rate mode : Variable
      Bit rate : 1 000 Kbps
      Width : 640 pixels
      Height : 480 pixels
      Display aspect ratio : 4/3
      Frame rate : 25.000 fps
      Resolution : 24 bits
      Scan type : Progressive
      Bits/(Pixel*Frame) : 0.130
      Stream size : 646 MiB (90%)
   Audio #1
      ID : 1
      Format : WMA2
      Format profile : L
      Codec ID : 161
      Codec ID/Info : Windows Media Audio 2
      Description of the codec : Windows Media Audio 9.2 -  96 kbps, 44 kHz, stereo 2-pass VBR
      Duration : 1h 30mn
      Bit rate mode : Variable
      Bit rate : 95.9 Kbps
      Channel(s) : 2 channels
      Sampling rate : 44.1 KHz
      Resolution : 16 bits
      Stream size : 62.0 MiB (9%)


Please seed at least as much as you D/L.
=======================================
Thanks 

John